<?xml version="1.0" encoding="UTF-8"?> <svg xmlns="http://www.w3.org/2000/svg" width="688" height="73" viewBox="0 0 688 73" fill="none"><path d="M0.41315 2.03169H3.49209L3.49209 70.4868H30.1763V71H0.41315L0.41315 2.03169ZM44.7451 1.62117H47.5162V71H44.7451V1.62117ZM62.0481 2.03169H65.1271V70.4868H91.8112V71H62.0481V2.03169ZM106.38 1.62117H109.151V71H106.38V1.62117ZM127.275 1.62117H130.046V71H127.275V1.62117ZM143.962 71L174.854 1.41591H178.139L209.441 71H206.362L198.87 53.3474H154.841L149.812 65.0474L149.915 64.8421L147.76 69.5632L147.247 71H143.962ZM155.149 52.5263L198.357 52.4237L176.497 3.6738L155.149 52.5263ZM273.164 66.5868L273.472 65.4579C279.425 71 285.069 71.3079 290.714 71.3079C302.209 71.3079 311.651 65.6632 311.651 52.1158C310.83 39.0816 301.798 36.7211 293.28 34.7711C291.843 34.4632 290.509 34.1553 288.559 33.3343C280.04 30.7685 273.369 24.508 273.369 16.2975C273.369 5.93169 283.017 0.492224 293.69 0.492224C298.411 0.389594 302.414 0.90275 306.519 3.46853C306.417 4.08433 306.417 4.28959 306.314 4.49485C302.517 1.82643 298.617 0.90275 293.793 0.90275C285.172 0.90275 277.167 5.3159 277.167 16.2975C277.167 29.7422 286.917 32.4106 295.846 33.9501L295.64 33.7448C305.596 36.1053 314.935 41.5448 314.935 52.2185C314.935 64.8421 303.954 72.0263 290.919 72.0263C283.633 72.0263 277.988 70.7947 273.164 66.5868ZM323.981 36.3106C323.981 16.708 341.018 0.184327 361.236 0.184327C381.66 0.184327 398.286 16.9133 398.286 36.3106C398.286 56.0158 381.147 72.2316 361.236 72.2316C341.121 72.2316 323.981 55.9132 323.981 36.3106ZM327.163 36.3106C327.163 55.9132 342.455 71.4105 361.236 71.4105C380.12 71.4105 395.207 55.9132 395.207 36.3106C395.207 16.8106 380.223 1.10801 361.236 1.10801C342.455 1.10801 327.163 17.1185 327.163 36.3106ZM408.186 1.82643H423.683C435.383 1.82643 440.926 9.42116 440.926 16.8106C440.926 22.8659 440.002 32.5132 422.965 33.129C438.976 33.7448 444.004 45.5474 444.004 51.8079C444.004 59.8132 439.283 71.1026 427.173 71H408.186V1.82643ZM411.162 2.75012V32.5132H422.144C433.023 32.5132 438.668 27.8948 438.668 17.4264C438.668 5.52116 432.612 2.75012 421.22 2.75012H411.162ZM411.162 33.7448V70.0763H422.349C433.844 70.4868 440.926 64.8421 440.926 52.3211C440.926 40.3132 432.818 33.7448 421.426 33.7448H411.162ZM455.409 35.6948C455.409 15.579 472.652 0.697484 493.383 0.697484C494.717 0.594854 496.051 0.492224 497.386 0.492224H502.107C502.004 1.31328 502.004 1.82643 501.901 2.23696C499.13 1.7238 495.846 1.51854 492.767 1.51854C474.396 1.51854 458.591 16.2975 458.591 35.6948C458.591 55.2974 475.217 71 493.896 71C495.436 71 498.309 70.5895 500.978 69.8711C501.183 71.2053 501.183 71.1026 501.388 71.4105L494.512 71.6158C473.575 71.6158 455.409 56.529 455.409 35.6948ZM513.622 1.62117H516.599V43.0843H557.754V1.62117H560.627V71H557.754V44.829H516.599V71H513.622V1.62117ZM572.579 1.51854H575.556V42.5711C575.761 55.9132 583.869 71.3079 600.29 71.3079C616.505 71.3079 624.921 55.2974 624.921 41.4422V1.51854H627.898V43.2895C626.153 56.9395 617.121 72.0263 600.392 72.0263C583.253 72.0263 574.119 57.5553 572.579 43.9053V1.51854ZM643.497 1.62117V36.208H657.353C668.129 23.379 676.237 12.7054 684.55 1.62117H687.732L660.329 37.029C665.05 43.2895 672.747 52.7316 678.187 59.3H678.084C679.932 61.6605 681.779 63.8158 683.626 66.0737C684.961 67.6132 686.5 69.4605 687.834 71H684.961L657.558 38.1579H643.497V71H640.829V1.62117H643.497Z" fill="#252525"></path></svg> 