<svg width="800" height="600" xmlns="http://www.w3.org/2000/svg">

 <g>
  <title>Layer 1</title>
  <polyline stroke-linecap="round" id="svg_3" points="266.5,253.5 265.5,253.5 " stroke="#000" fill="none"/>
  <path d="m229,185c0,0 0.93414,0.14429 3,1c5.84312,2.4203 13,3 23,3c11,0 30.99374,-0.05486 57,-3c17.99573,-2.03796 41.09897,-5.27673 51,-7c28.43427,-4.94897 46.87546,-12.47215 65,-17c17.88931,-4.46909 37.81082,-8.91252 55,-12c15.87054,-2.85063 25.0899,-3.4662 37,-2c4.09222,0.50377 6,3 6,3c-2,2 -8.88184,6.39516 -25,11c-26.81961,7.66216 -61.83887,15.63071 -92,23c-26.86829,6.56474 -46.93665,9.33632 -62,12c-12.952,2.29033 -22.34348,3.76314 -28,6c-3.35291,1.3259 -5.29291,3.29289 -6,4c-0.70709,0.70711 0,1 0,2c0,0 2.0174,0.55923 11,0c16.09335,-1.00194 34.03,-4.73547 44,-6c13.0484,-1.65497 33,-7 38,-10l0,0l1,-1" id="svg_22" stroke="#000" fill="none"/>
 </g>
</svg>